<svg width="812" height="245" viewBox="0 0 812 245" fill="none" xmlns="http://www.w3.org/2000/svg">
<path d="M41.0791 200.292C36.1989 200.292 32.2427 196.335 32.2427 191.455V8.8364C32.2427 3.9562 36.1989 0 41.0791 0H151.303C155.671 0 159.383 3.19035 160.039 7.50792L163.243 28.5735C164.056 33.9215 159.916 38.7384 154.507 38.7384H84.5931C79.7129 38.7384 75.7567 42.6945 75.7567 47.5747V79.7723V118.224V191.455C75.7567 196.335 71.8005 200.292 66.9203 200.292H41.0791Z" fill="#2F3037"/>
<path d="M24.6396 143.656C18.421 143.045 12.4719 141.356 10.3932 136.793L4.53912 125.205C0.729479 117.668 3.00208 108.061 11.9419 106.527C11.9419 106.527 52.0721 103.932 75.3655 99.9713C98.6589 96.011 132.612 74.1933 132.612 74.1933C139.963 71.2344 148.665 76.1299 148.855 86.7776L149.083 99.6314C149.425 105.784 146.558 109.205 140.349 112.937C140.349 112.937 101.114 133.292 80.5073 139.491C59.9008 145.69 24.6396 143.656 24.6396 143.656Z" fill="#2F3037"/>
<path d="M779.84 91.9199C780.997 88.2379 784.41 85.7329 788.27 85.7329H799.74C805.771 85.7329 810.03 91.6418 808.123 97.3636L767.771 218.418C764.852 227.322 760.692 233.891 755.291 238.124C750.036 242.357 742.446 244.474 732.52 244.474H721.213C716.333 244.474 712.376 240.517 712.376 235.637V228.13C712.376 223.25 716.333 219.294 721.213 219.294H727.543C731.414 219.294 734.835 216.774 735.982 213.077L737.151 209.311C737.699 207.545 737.679 205.651 737.095 203.897L701.583 97.3636C699.676 91.6418 703.935 85.7329 709.966 85.7329H723.407C727.267 85.7329 730.68 88.2379 731.837 91.9199L746.752 139.376L754.912 172.018C755.006 172.394 755.344 172.657 755.731 172.657C756.116 172.657 756.453 172.396 756.549 172.023L764.925 139.376L779.84 91.9199Z" fill="#2F3037"/>
<path d="M644.067 203.31C632.973 203.31 623.631 201.559 616.041 198.056C610.88 195.575 606.091 192.419 601.672 188.588C598.12 185.509 598.27 180.108 601.575 176.765L608.153 170.111C611.722 166.501 617.545 166.719 621.558 169.828C623.708 171.494 625.956 172.948 628.302 174.19C633.265 176.817 638.885 178.131 645.162 178.131C651.584 178.131 656.036 177.182 658.518 175.285C660.999 173.241 662.24 170.541 662.24 167.183C662.24 161.782 658.372 158.571 650.635 157.549L638.155 156.017C612.319 152.805 599.4 140.982 599.4 120.546C599.4 115 600.422 109.964 602.466 105.439C604.655 100.768 607.648 96.8265 611.443 93.6152C615.384 90.2579 620.055 87.7035 625.456 85.9518C631.003 84.0543 637.206 83.1055 644.067 83.1055C650.051 83.1055 655.306 83.5434 659.831 84.4192C664.502 85.149 668.589 86.3168 672.093 87.9224C675.742 89.3821 679.026 91.2797 681.946 93.6152C682.676 94.1366 683.401 94.6746 684.123 95.2291C688.031 98.232 688.105 103.944 684.66 107.469L678.559 113.714C675.121 117.233 669.511 117.159 665.361 114.515C663.605 113.396 661.762 112.414 659.831 111.569C655.306 109.38 650.635 108.285 645.818 108.285C640.272 108.285 636.33 109.161 633.995 110.912C631.659 112.664 630.492 115 630.492 117.919C630.492 120.984 631.295 123.393 632.9 125.144C634.652 126.75 637.863 127.918 642.534 128.648L655.452 130.399C680.705 133.757 693.331 145.288 693.331 164.994C693.331 170.541 692.163 175.649 689.828 180.32C687.492 184.991 684.135 189.079 679.756 192.582C675.523 195.939 670.341 198.566 664.21 200.464C658.226 202.362 651.511 203.31 644.067 203.31Z" fill="#2F3037"/>
<path d="M487.499 200.683C482.619 200.683 478.663 196.727 478.663 191.847V94.5693C478.663 89.6891 482.619 85.7329 487.499 85.7329H502.231C507.111 85.7329 511.068 89.6891 511.068 94.5693V104.454C511.068 104.877 511.41 105.22 511.833 105.22C512.161 105.22 512.452 105.011 512.562 104.703C514.633 98.936 518.149 93.9265 523.11 89.674C528.219 85.295 535.298 83.1055 544.348 83.1055C556.172 83.1055 565.076 87.0466 571.061 94.9289C577.191 102.811 580.257 114.051 580.257 128.648V191.847C580.257 196.727 576.3 200.683 571.42 200.683H556.688C551.808 200.683 547.852 196.727 547.852 191.847V131.275C547.852 123.831 546.684 118.357 544.348 114.854C542.013 111.204 537.853 109.38 531.868 109.38C529.241 109.38 526.686 109.745 524.205 110.475C521.723 111.058 519.461 112.08 517.417 113.54C515.52 115 513.987 116.824 512.819 119.014C511.651 121.057 511.068 123.466 511.068 126.239V191.847C511.068 196.727 507.111 200.683 502.231 200.683H487.499Z" fill="#2F3037"/>
<path d="M412.502 203.31C403.744 203.31 395.935 201.924 389.074 199.15C382.214 196.231 376.375 192.217 371.558 187.108C366.887 181.853 363.311 175.503 360.829 168.059C358.494 160.615 357.326 152.294 357.326 143.098C357.326 134.048 358.494 125.874 360.829 118.576C363.165 111.131 366.595 104.782 371.12 99.5269C375.791 94.272 381.484 90.2579 388.199 87.4845C394.913 84.5652 402.576 83.1055 411.189 83.1055C420.676 83.1055 428.778 84.7111 435.492 87.9224C442.353 91.1337 447.9 95.4398 452.133 100.841C456.512 106.241 459.65 112.518 461.548 119.671C463.591 126.677 464.613 134.048 464.613 141.785V142.582C464.613 147.462 460.657 151.419 455.777 151.419H392.578C391.61 151.419 390.826 152.203 390.826 153.17C390.826 160.761 392.87 166.818 396.957 171.343C401.044 175.722 407.466 177.912 416.224 177.912C422.939 177.912 428.413 176.598 432.646 173.971C434.141 172.991 435.599 171.948 437.021 170.842C441.225 167.57 447.425 167.793 450.764 171.943L456.082 178.556C458.744 181.865 458.727 186.675 455.488 189.423C451.27 193.002 446.283 195.952 440.528 198.275C432.354 201.632 423.012 203.31 412.502 203.31ZM411.845 106.971C405.277 106.971 400.095 109.161 396.3 113.54C392.651 117.773 390.826 123.466 390.826 130.618C390.826 131.586 391.61 132.37 392.578 132.37H429.143C430.231 132.37 431.113 131.488 431.113 130.399C431.113 123.393 429.508 117.773 426.296 113.54C423.231 109.161 418.414 106.971 411.845 106.971Z" fill="#2F3037"/>
<path d="M310.833 182.056C310.833 181.702 310.546 181.415 310.193 181.415C309.921 181.415 309.679 181.587 309.586 181.843C308.58 184.606 307.244 187.237 305.578 189.735C303.973 192.363 301.856 194.698 299.229 196.742C296.601 198.785 293.463 200.391 289.814 201.559C286.31 202.727 282.223 203.31 277.552 203.31C265.729 203.31 256.752 199.442 250.621 191.706C244.636 183.824 241.644 172.584 241.644 157.987V94.5693C241.644 89.6891 245.6 85.7329 250.48 85.7329H265.213C270.093 85.7329 274.049 89.6891 274.049 94.5693V155.141C274.049 162.147 275.29 167.548 277.771 171.343C280.253 175.139 284.486 177.036 290.47 177.036C292.952 177.036 295.433 176.671 297.915 175.941C300.396 175.212 302.586 174.19 304.483 172.876C306.381 171.416 307.914 169.665 309.081 167.621C310.249 165.578 310.833 163.169 310.833 160.396V94.5693C310.833 89.6891 314.789 85.7329 319.669 85.7329H334.402C339.282 85.7329 343.238 89.6891 343.238 94.5693V191.847C343.238 196.727 339.282 200.683 334.402 200.683H319.669C314.789 200.683 310.833 196.727 310.833 191.847V182.056Z" fill="#2F3037"/>
<path d="M211.805 200.683C200.711 200.683 192.537 197.983 187.282 192.582C182.173 187.181 179.619 179.372 179.619 169.154V47.4945C179.619 42.6143 183.575 38.6581 188.455 38.6581H203.187C208.068 38.6581 212.024 42.6143 212.024 47.4945V168.278C212.024 172.269 215.259 175.504 219.249 175.504C223.24 175.504 226.475 178.738 226.475 182.729V191.847C226.475 196.727 222.519 200.683 217.638 200.683H211.805Z" fill="#2F3037"/>
</svg>
