<?xml version="1.0" encoding="UTF-8"?><svg id="a" xmlns="http://www.w3.org/2000/svg" viewBox="0 0 691.63 579.17"><defs><style>.b{fill:#fff;}</style></defs><g><path class="b" d="M486.19,277.52c-1,1.78-2.12,3.57-3.23,5.24-3.12,4.91-6.47,9.7-10.04,14.28-15.39,19.97-34.69,36.7-56.77,48.97l35.25,64.14c40.71-22.53,74.62-55.77,98.05-95.93l-63.24-36.7Z"/><path class="b" d="M326.8,0c-101.95,0-184.6,82.65-184.6,184.6s82.65,184.6,184.6,184.6c32.46,0,62.91-8.37,89.46-23.09l-23.31-42.5-12.16-22.2c-15.95,8.92-34.35,14.05-53.99,14.05-61.24,0-110.76-49.64-110.76-110.76s49.64-110.76,110.76-110.76,110.76,49.64,110.76,110.76c0,20.41-5.58,39.49-15.17,55.88l22.09,12.6,41.83,24.32c15.95-27.33,25.1-59.01,25.1-92.91C511.4,82.65,428.75,0,326.8,0"/></g><g><polygon class="b" points="691.63 579.02 653.96 579.02 541.7 418.43 579.67 418.43 691.63 579.02"/><polygon class="b" points="691.63 418.43 653.96 418.43 541.7 579.02 579.67 579.02 691.63 418.43"/><path class="b" d="M275.03,518.84h-51.18v60.18h-31.82v-160.59h83.15c13.96,0,25.36,4.65,34.37,13.96,9.01,9.31,13.51,20.86,13.51,34.82s-4.35,26.11-13.06,36.17c-9.46,10.36-21.01,15.46-34.97,15.46m-9.76-73.99h-41.57v47.58h41.57c7.2,0,13.36-2.25,18.31-6.75,4.95-4.5,7.5-10.36,7.5-17.56s-2.55-12.61-7.5-16.96c-4.95-4.2-11.11-6.3-18.31-6.3"/><polygon class="b" points="345.94 579.02 345.94 418.58 377.31 418.58 377.31 551.55 457.91 551.55 457.91 579.02 345.94 579.02"/><rect class="b" x="488" y="418.58" width="29.57" height="160.59"/><path class="b" d="M80.44,418.28C36.02,418.28,0,454.3,0,498.72s36.02,80.44,80.44,80.44,80.44-36.02,80.44-80.44c-.15-44.57-36.02-80.44-80.44-80.44m0,129.52c-27.17,0-49.08-22.06-49.08-49.08s22.06-49.08,49.08-49.08,49.08,22.06,49.08,49.08c0,27.02-21.91,49.08-49.08,49.08"/><polygon class="b" points="157.29 579.02 113.46 516.13 75.49 516.13 119.47 579.02 157.29 579.02"/></g></svg>